<svg id="Capa_1" enable-background="new 0 0 509.117 509.117" height="512" viewBox="0 0 509.117 509.117" width="512" xmlns="http://www.w3.org/2000/svg"><g><path d="m434.559 180v-105.441h-105.443l-74.557-74.559-74.558 74.559h-105.442v105.441l-74.558 74.559 74.558 74.559v105.441h105.442l74.558 74.559 74.558-74.559h105.442v-105.442l74.558-74.559zm-30 136.691v87.867h-87.869l-62.132 62.133-62.132-62.133h-87.868v-87.867l-62.132-62.133 62.132-62.133v-87.867h87.868l62.132-62.133 62.132 62.133h87.868v87.867l62.132 62.133z"/><path d="m374.559 204.852v-70.294h-70.294l-49.706-49.706-49.706 49.706h-70.294v70.294l-49.706 49.706 49.706 49.706v70.294h70.294l49.706 49.706 49.706-49.706h70.294v-70.294l49.706-49.706zm-30 86.987v52.72h-52.72l-37.28 37.28-37.279-37.28h-52.721v-52.72l-37.279-37.28 37.279-37.28v-52.72h52.721l37.279-37.28 37.28 37.28h52.72v52.72l37.28 37.28z"/><path d="m254.559 194.559c-33.083 0-60 26.916-60 60s26.917 60 60 60c33.084 0 60-26.916 60-60s-26.916-60-60-60zm0 90c-16.542 0-30-13.458-30-30s13.458-30 30-30 30 13.458 30 30-13.458 30-30 30z"/></g></svg>